<svg width="77" height="23" viewBox="0 0 77 23" fill="none" xmlns="http://www.w3.org/2000/svg">
<path fill-rule="evenodd" clip-rule="evenodd" d="M41.7073 7.11084H44.4582V16.6584H41.7073V7.11084Z" fill="white"/>
<path d="M39.9346 11.0064C39.6379 10.4642 39.2138 10.0007 38.7023 9.65781C39.3347 8.9432 39.7076 7.99411 39.6621 6.9551C39.5691 4.89471 37.8021 3.30423 35.7338 3.30423H29.9995V16.6574H36.5606C38.68 16.6574 40.3986 14.9455 40.3986 12.8314C40.3986 12.1705 40.2312 11.5495 39.9346 11.0064ZM36.1337 14.3912H32.7495V11.1139H36.1142C36.9977 11.1139 37.7454 11.8137 37.7454 12.7535C37.7454 13.6813 36.9995 14.3912 36.1337 14.3912ZM35.4148 8.84774H32.7495V5.57131H35.3944C36.2788 5.57131 37.0265 6.27016 37.0265 7.20999C37.0246 8.13684 36.2788 8.84774 35.4148 8.84774Z" fill="white"/>
<path d="M77.0001 3.70001H73.8354L71.3635 7.64933L68.8925 3.70001H65.7268L69.7815 10.1787L65.7268 16.6583H68.8925L71.3635 12.709L73.8354 16.6583H77.0001L72.9463 10.1787L77.0001 3.70001Z" fill="white"/>
<path d="M54.2684 11.3475V16.6574H51.5184V10.872C51.5184 10.0304 50.8218 9.35105 49.97 9.37514C49.1497 9.40017 48.5164 10.1148 48.5164 10.9341V16.6556H45.7655V7.10806H48.5164V7.56315C49.1358 7.27119 49.8258 7.10806 50.5559 7.10806C50.9213 7.10806 51.2775 7.14884 51.6198 7.2267C53.144 7.57242 54.2209 8.92933 54.26 10.4864C54.2656 10.7664 54.2684 11.0555 54.2684 11.3475Z" fill="white"/>
<path fill-rule="evenodd" clip-rule="evenodd" d="M41.7073 3.30423H44.4582V6.04586H41.7073V3.30423Z" fill="white"/>
<path d="M64.9905 7.1108H60.2466C60.2308 7.1108 60.2159 7.10895 60.1992 7.10895C57.5543 7.10895 55.4097 9.2472 55.4097 11.8841C55.4097 14.508 57.5329 16.6361 60.1583 16.6555C60.1703 16.6583 60.1843 16.6583 60.1992 16.6583C61.2203 16.6583 62.2396 16.9568 62.2396 17.8419C62.2396 18.74 61.3161 19.5028 60.1992 19.5028C59.073 19.5028 58.1597 18.5927 58.1597 17.4702H55.4088C55.4088 20.1062 57.5543 22.2445 60.1982 22.2445C62.845 22.2445 64.9877 20.1062 64.9877 17.4702C64.9877 17.4702 65.0407 16.0438 63.8271 15.0002C64.5524 14.1651 64.9886 13.0779 64.9886 11.8841C64.9886 10.9637 64.7282 10.1055 64.2753 9.37696H64.9905V7.1108ZM60.1992 13.9167C59.073 13.9167 58.1597 13.0065 58.1597 11.8841C58.1597 10.7617 59.073 9.85151 60.1992 9.85151C61.3254 9.85151 62.2396 10.7617 62.2396 11.8841C62.2396 13.0065 61.3254 13.9167 60.1992 13.9167Z" fill="white"/>
<path d="M25.4863 0C22.5438 0 19.6348 0.741483 17.0718 2.14566C15.6991 2.89734 14.4315 3.82976 13.3053 4.91881C13.0403 5.17369 12.7808 5.44063 12.5325 5.71312C11.702 6.62515 10.9655 7.62615 10.347 8.68739C10.1276 9.06833 9.8839 9.44 9.6235 9.79498C9.58909 9.84133 9.55654 9.88767 9.51934 9.93308C7.2418 12.937 3.77203 14.6591 0 14.6591V20.2091C2.94248 20.2091 5.85147 19.4676 8.41452 18.0644C9.78439 17.3145 11.052 16.3803 12.181 15.2912C12.446 15.0354 12.7055 14.7685 12.9547 14.4969C13.7861 13.584 14.5199 12.5848 15.1383 11.5226L15.1792 11.454C15.3885 11.0963 15.6191 10.7478 15.8619 10.416C15.8963 10.3706 15.9307 10.3233 15.9669 10.2751C18.2435 7.27209 21.7143 5.54907 25.4863 5.54907V0Z" fill="white"/>
<path d="M25.4863 14.661C21.7143 14.661 18.2435 12.938 15.9651 9.93407C15.9316 9.88865 15.8963 9.84324 15.8619 9.79411C15.6024 9.44191 15.3587 9.06931 15.1393 8.68745C14.5208 7.62713 13.7852 6.62706 12.9538 5.71411C12.7055 5.44347 12.446 5.17653 12.181 4.92072C11.0547 3.83167 9.78811 2.89833 8.41452 2.14758C5.85147 0.74432 2.94248 0.00283813 0 0.00283813V5.55283C3.77203 5.55283 7.24273 7.27493 9.5212 10.2789C9.55654 10.3243 9.59002 10.3715 9.62443 10.417C9.86902 10.7497 10.0997 11.0991 10.3061 11.4532L10.3498 11.5255C10.9673 12.5849 11.702 13.584 12.5325 14.4979C12.7799 14.7685 13.0403 15.0355 13.3053 15.2913C14.4334 16.3803 15.701 17.3146 17.0718 18.0644C19.6348 19.4677 22.5438 20.2092 25.4863 20.2092V14.661Z" fill="white"/>
</svg>
