<svg width="105" height="19" viewBox="0 0 105 19" fill="none" xmlns="http://www.w3.org/2000/svg">
<path d="M8.52154 10.4111V18.9178H0V10.4111H8.52154ZM10.3022 10.4111L18.8237 10.4112C18.5508 15.0344 14.9345 18.6442 10.3022 18.9178V10.4111ZM8.52154 0V8.50667H0V0H8.52154ZM10.3022 0C14.9345 0.273598 18.5508 3.88343 18.8237 8.50667H10.3022V0Z" fill="white"/>
<path d="M29.1077 15.4766C32.426 15.4766 34.9019 12.846 34.9019 9.45883C34.9019 6.0717 32.426 3.44109 29.1077 3.44109H24.3279V15.4766H29.1077ZM29.1077 13.207H26.7006V5.71064H29.1077C31.1881 5.71064 32.6324 7.24086 32.6324 9.45883C32.6324 11.6768 31.1881 13.207 29.1077 13.207ZM44.0317 15.4766V13.207H38.9596V10.5076H43.5159V8.27248H38.9596V5.71064H43.9457V3.44109H36.5869V15.4766H44.0317ZM53.1443 15.4766V13.207H48.0722V10.5076H52.6285V8.27248H48.0722V5.71064H53.0583V3.44109H45.6995V15.4766H53.1443ZM57.1848 15.4766V11.5221H59.2996C61.6207 11.5221 63.4088 9.73393 63.4088 7.48157C63.4088 5.22922 61.6207 3.44109 59.2996 3.44109H54.812V15.4766H57.1848ZM59.2996 9.30409H57.1848V5.65906H59.2996C60.314 5.65906 61.0533 6.43277 61.0533 7.48157C61.0533 8.51318 60.314 9.30409 59.2996 9.30409ZM70.6645 15.7173C72.8825 15.7173 74.8253 14.5997 75.8398 12.8803L73.7937 11.694C73.2263 12.7428 72.04 13.3962 70.6645 13.3962C68.309 13.3962 66.7616 11.7628 66.7616 9.45883C66.7616 7.1377 68.309 5.50431 70.6645 5.50431C72.04 5.50431 73.2091 6.15767 73.7937 7.22367L75.8398 6.03731C74.8081 4.31796 72.8653 3.20038 70.6645 3.20038C67.0195 3.20038 64.406 5.93415 64.406 9.45883C64.406 12.9663 67.0195 15.7173 70.6645 15.7173ZM83.1298 15.7173C86.6029 15.7173 89.3883 12.9663 89.3883 9.45883C89.3883 5.93415 86.6029 3.20038 83.1298 3.20038C79.6567 3.20038 76.8886 5.93415 76.8886 9.45883C76.8886 12.9663 79.6567 15.7173 83.1298 15.7173ZM83.1298 13.3962C80.9462 13.3962 79.2441 11.7628 79.2441 9.45883C79.2441 7.1377 80.9462 5.50431 83.1298 5.50431C85.3134 5.50431 87.0156 7.1377 87.0156 9.45883C87.0156 11.7628 85.3134 13.3962 83.1298 13.3962ZM93.4288 15.4766V3.44109H91.056V15.4766H93.4288ZM98.0366 15.4766V8.11773L103.195 15.4766H105V3.44109H102.627V10.7827L97.4692 3.44109H95.6639V15.4766H98.0366Z" fill="white"/>
<path d="M29.1077 15.4766C32.426 15.4766 34.9019 12.846 34.9019 9.45883C34.9019 6.0717 32.426 3.44109 29.1077 3.44109H24.3279V15.4766H29.1077ZM29.1077 13.207H26.7006V5.71064H29.1077C31.1881 5.71064 32.6324 7.24086 32.6324 9.45883C32.6324 11.6768 31.1881 13.207 29.1077 13.207ZM44.0317 15.4766V13.207H38.9596V10.5076H43.5159V8.27248H38.9596V5.71064H43.9457V3.44109H36.5869V15.4766H44.0317ZM53.1443 15.4766V13.207H48.0722V10.5076H52.6285V8.27248H48.0722V5.71064H53.0583V3.44109H45.6995V15.4766H53.1443ZM57.1848 15.4766V11.5221H59.2996C61.6207 11.5221 63.4088 9.73393 63.4088 7.48157C63.4088 5.22922 61.6207 3.44109 59.2996 3.44109H54.812V15.4766H57.1848ZM59.2996 9.30409H57.1848V5.65906H59.2996C60.314 5.65906 61.0533 6.43277 61.0533 7.48157C61.0533 8.51318 60.314 9.30409 59.2996 9.30409ZM70.6645 15.7173C72.8825 15.7173 74.8253 14.5997 75.8398 12.8803L73.7937 11.694C73.2263 12.7428 72.04 13.3962 70.6645 13.3962C68.309 13.3962 66.7616 11.7628 66.7616 9.45883C66.7616 7.1377 68.309 5.50431 70.6645 5.50431C72.04 5.50431 73.2091 6.15767 73.7937 7.22367L75.8398 6.03731C74.8081 4.31796 72.8653 3.20038 70.6645 3.20038C67.0195 3.20038 64.406 5.93415 64.406 9.45883C64.406 12.9663 67.0195 15.7173 70.6645 15.7173ZM83.1298 15.7173C86.6029 15.7173 89.3883 12.9663 89.3883 9.45883C89.3883 5.93415 86.6029 3.20038 83.1298 3.20038C79.6567 3.20038 76.8886 5.93415 76.8886 9.45883C76.8886 12.9663 79.6567 15.7173 83.1298 15.7173ZM83.1298 13.3962C80.9462 13.3962 79.2441 11.7628 79.2441 9.45883C79.2441 7.1377 80.9462 5.50431 83.1298 5.50431C85.3134 5.50431 87.0156 7.1377 87.0156 9.45883C87.0156 11.7628 85.3134 13.3962 83.1298 13.3962ZM93.4288 15.4766V3.44109H91.056V15.4766H93.4288ZM98.0366 15.4766V8.11773L103.195 15.4766H105V3.44109H102.627V10.7827L97.4692 3.44109H95.6639V15.4766H98.0366Z" fill="white"/>
</svg>
