<svg width="57" height="16" viewBox="0 0 57 16" fill="none" xmlns="http://www.w3.org/2000/svg">
<path d="M16.717 0H0.379933C0.279167 0 0.182531 0.0374546 0.111279 0.104125C0.0400281 0.170794 0 0.261219 0 0.355505V15.6422C0 15.7365 0.0400281 15.827 0.111279 15.8937C0.182531 15.9602 0.279167 15.9977 0.379933 15.9977H16.717C16.8178 15.9977 16.9144 15.9602 16.9857 15.8937C17.0569 15.827 17.097 15.7365 17.097 15.6422V0.355505C17.097 0.261219 17.0569 0.170794 16.9857 0.104125C16.9144 0.0374546 16.8178 0 16.717 0ZM11.398 10.3097C11.398 10.4039 11.3579 10.4944 11.2867 10.561C11.2154 10.6277 11.1188 10.6652 11.018 10.6652H6.07891C5.97815 10.6652 5.88151 10.6277 5.81026 10.561C5.73901 10.4944 5.69898 10.4039 5.69898 10.3097V5.68808C5.69898 5.5938 5.73901 5.50337 5.81026 5.43671C5.88151 5.37003 5.97815 5.33258 6.07891 5.33258H11.018C11.1188 5.33258 11.2154 5.37003 11.2867 5.43671C11.3579 5.50337 11.398 5.5938 11.398 5.68808V10.3097Z" fill="white"/>
<path d="M50.918 5.33322H45.9788C45.7691 5.33322 45.5989 5.49238 45.5989 5.68873V10.3103C45.5989 10.5066 45.7691 10.6658 45.9788 10.6658H50.918C51.1279 10.6658 51.2979 10.5066 51.2979 10.3103V5.68873C51.2979 5.49238 51.1279 5.33322 50.918 5.33322Z" fill="white"/>
<path d="M45.2202 0.000274658H40.2812C40.0713 0.000274658 39.9012 0.15944 39.9012 0.35578V4.97735C39.9012 5.17369 40.0713 5.33286 40.2812 5.33286H45.2202C45.4301 5.33286 45.6003 5.17369 45.6003 4.97735V0.35578C45.6003 0.15944 45.4301 0.000274658 45.2202 0.000274658Z" fill="white"/>
<path d="M56.6201 0.000274658H51.6809C51.4712 0.000274658 51.301 0.15944 51.301 0.35578V4.97735C51.301 5.17369 51.4712 5.33286 51.6809 5.33286H56.6201C56.83 5.33286 57.0001 5.17369 57.0001 4.97735V0.35578C57.0001 0.15944 56.83 0.000274658 56.6201 0.000274658Z" fill="white"/>
<path d="M45.2202 10.6657H40.2812C40.0713 10.6657 39.9012 10.8248 39.9012 11.0212V15.6428C39.9012 15.8391 40.0713 15.9983 40.2812 15.9983H45.2202C45.4301 15.9983 45.6003 15.8391 45.6003 15.6428V11.0212C45.6003 10.8248 45.4301 10.6657 45.2202 10.6657Z" fill="white"/>
<path d="M56.6201 10.6657H51.6809C51.4712 10.6657 51.301 10.8248 51.301 11.0212V15.6428C51.301 15.8391 51.4712 15.9983 51.6809 15.9983H56.6201C56.83 15.9983 57.0001 15.8391 57.0001 15.6428V11.0212C57.0001 10.8248 56.83 10.6657 56.6201 10.6657Z" fill="white"/>
<path d="M36.6649 0.000274658H31.7259C31.516 0.000274658 31.3458 0.15944 31.3458 0.35578V4.97735C31.3458 5.17369 31.516 5.33286 31.7259 5.33286H36.6649C36.8748 5.33286 37.0449 5.17369 37.0449 4.97735V0.35578C37.0449 0.15944 36.8748 0.000274658 36.6649 0.000274658Z" fill="white"/>
<path d="M36.6649 10.6657H31.7259C31.516 10.6657 31.3458 10.8248 31.3458 11.0212V15.6428C31.3458 15.8391 31.516 15.9983 31.7259 15.9983H36.6649C36.8748 15.9983 37.0449 15.8391 37.0449 15.6428V11.0212C37.0449 10.8248 36.8748 10.6657 36.6649 10.6657Z" fill="white"/>
<path d="M31.3442 5.68409C31.3442 5.5898 31.3041 5.49937 31.2329 5.43271C31.1617 5.36603 31.0651 5.32858 30.9643 5.32858H25.6452V0.355505C25.6452 0.261219 25.6051 0.170794 25.5339 0.104125C25.4627 0.0374546 25.366 0 25.2653 0H20.3262C20.2254 0 20.1288 0.0374546 20.0575 0.104125C19.9863 0.170794 19.9462 0.261219 19.9462 0.355505V15.6342C19.9462 15.7285 19.9863 15.8189 20.0575 15.8856C20.1288 15.9523 20.2254 15.9897 20.3262 15.9897H25.2653C25.366 15.9897 25.4627 15.9523 25.5339 15.8856C25.6051 15.8189 25.6452 15.7285 25.6452 15.6342V10.6612H30.9643C31.0651 10.6612 31.1617 10.6237 31.2329 10.557C31.3041 10.4904 31.3442 10.3999 31.3442 10.3056V5.68409Z" fill="white"/>
</svg>
